# xmcd
#
# Track frame offsets: 
#        150
#        16717
#        29121
#        46425
#        64526
#        77671
#        92807
#        108724
#        122239
#        140569
#        160529
#        174027
#
# Disc length: 2506 seconds
#
# Revision: 0
# Processed by: cddbd v1.5.2PL0 Copyright (c) Steve Scherf et al.
# Submitted via: ExactAudioCopy v0.95b4
#
DISCID=9509c80c
DTITLE=Julien Jacob - Barham
DYEAR=2008
DGENRE=Ethnic
TTITLE0=Jamo
TTITLE1=Diela
TTITLE2=Jody
TTITLE3=Nacrol
TTITLE4=Tililtil
TTITLE5=Dhidhi
TTITLE6=Shinop
TTITLE7=Dierel
TTITLE8=Sheryl
TTITLE9=Taroul
TTITLE10=Maskhar
TTITLE11=Barham
EXTD=
EXTT0=
EXTT1=
EXTT2=
EXTT3=
EXTT4=
EXTT5=
EXTT6=
EXTT7=
EXTT8=
EXTT9=
EXTT10=
EXTT11=
PLAYORDER=
